<svg width="32" height="32" viewBox="0 0 32 32" fill="none" xmlns="http://www.w3.org/2000/svg">
<path d="M12.4993 7.66699H19.4993C22.166 7.66699 24.3327 9.83366 24.3327 12.5003V19.5003C24.3327 20.7822 23.8235 22.0116 22.917 22.918C22.0106 23.8244 20.7812 24.3337 19.4993 24.3337H12.4993C9.83268 24.3337 7.66602 22.167 7.66602 19.5003V12.5003C7.66602 11.2184 8.17524 9.98907 9.08167 9.08264C9.98809 8.17622 11.2175 7.66699 12.4993 7.66699ZM12.3327 9.33366C11.537 9.33366 10.774 9.64973 10.2114 10.2123C9.64875 10.7749 9.33268 11.538 9.33268 12.3337V19.667C9.33268 21.3253 10.6743 22.667 12.3327 22.667H19.666C20.4617 22.667 21.2247 22.3509 21.7873 21.7883C22.3499 21.2257 22.666 20.4626 22.666 19.667V12.3337C22.666 10.6753 21.3243 9.33366 19.666 9.33366H12.3327ZM20.3743 10.5837C20.6506 10.5837 20.9156 10.6934 21.1109 10.8888C21.3063 11.0841 21.416 11.3491 21.416 11.6253C21.416 11.9016 21.3063 12.1665 21.1109 12.3619C20.9156 12.5572 20.6506 12.667 20.3743 12.667C20.0981 12.667 19.8331 12.5572 19.6378 12.3619C19.4424 12.1665 19.3327 11.9016 19.3327 11.6253C19.3327 11.3491 19.4424 11.0841 19.6378 10.8888C19.8331 10.6934 20.0981 10.5837 20.3743 10.5837ZM15.9993 11.8337C17.1044 11.8337 18.1642 12.2726 18.9456 13.054C19.727 13.8354 20.166 14.8953 20.166 16.0003C20.166 17.1054 19.727 18.1652 18.9456 18.9466C18.1642 19.728 17.1044 20.167 15.9993 20.167C14.8943 20.167 13.8345 19.728 13.0531 18.9466C12.2717 18.1652 11.8327 17.1054 11.8327 16.0003C11.8327 14.8953 12.2717 13.8354 13.0531 13.054C13.8345 12.2726 14.8943 11.8337 15.9993 11.8337ZM15.9993 13.5003C15.3363 13.5003 14.7004 13.7637 14.2316 14.2326C13.7627 14.7014 13.4993 15.3373 13.4993 16.0003C13.4993 16.6634 13.7627 17.2993 14.2316 17.7681C14.7004 18.2369 15.3363 18.5003 15.9993 18.5003C16.6624 18.5003 17.2983 18.2369 17.7671 17.7681C18.236 17.2993 18.4993 16.6634 18.4993 16.0003C18.4993 15.3373 18.236 14.7014 17.7671 14.2326C17.2983 13.7637 16.6624 13.5003 15.9993 13.5003Z" fill="white"/>
<circle cx="16" cy="16" r="15.5" stroke="white"/>
</svg>
