<svg width="32" height="32" viewBox="0 0 32 32" fill="none" xmlns="http://www.w3.org/2000/svg">
<path d="M11.7835 8.16652C11.7833 8.60855 11.6075 9.03239 11.2948 9.34479C10.9821 9.6572 10.5581 9.83258 10.116 9.83236C9.674 9.83214 9.25017 9.65633 8.93776 9.34361C8.62536 9.0309 8.44997 8.60688 8.4502 8.16486C8.45042 7.72283 8.62622 7.29899 8.93894 6.98659C9.25166 6.67419 9.67567 6.4988 10.1177 6.49902C10.5597 6.49924 10.9836 6.67505 11.296 6.98777C11.6084 7.30049 11.7838 7.7245 11.7835 8.16652ZM11.8335 11.0665H8.5002V21.4999H11.8335V11.0665ZM17.1002 11.0665H13.7835V21.4999H17.0669V16.0249C17.0669 12.9749 21.0419 12.6915 21.0419 16.0249V21.4999H24.3335V14.8915C24.3335 9.74986 18.4502 9.94152 17.0669 12.4665L17.1002 11.0665Z" fill="white"/>
<circle cx="16" cy="16" r="15.5" stroke="white"/>
</svg>
