<svg width="32" height="32" viewBox="0 0 32 32" fill="none" xmlns="http://www.w3.org/2000/svg">
<path d="M24.7168 10.9997C24.0751 11.2913 23.3834 11.483 22.6668 11.5747C23.4001 11.133 23.9668 10.433 24.2334 9.59134C23.5418 10.008 22.7751 10.2997 21.9668 10.4663C21.3084 9.74967 20.3834 9.33301 19.3334 9.33301C17.3751 9.33301 15.7751 10.933 15.7751 12.908C15.7751 13.1913 15.8084 13.4663 15.8668 13.7247C12.9001 13.5747 10.2584 12.1497 8.50011 9.99134C8.19178 10.5163 8.01678 11.133 8.01678 11.783C8.01678 13.0247 8.64178 14.1247 9.60845 14.7497C9.01678 14.7497 8.46678 14.583 7.98345 14.333V14.358C7.98345 16.0913 9.21678 17.5413 10.8501 17.8663C10.3257 18.0098 9.77519 18.0298 9.24178 17.9247C9.46812 18.6351 9.91139 19.2567 10.5093 19.7021C11.1072 20.1476 11.8297 20.3944 12.5751 20.408C11.3115 21.4084 9.74511 21.9491 8.13345 21.9413C7.85011 21.9413 7.56678 21.9247 7.28345 21.8913C8.86678 22.908 10.7501 23.4997 12.7668 23.4997C19.3334 23.4997 22.9418 18.0497 22.9418 13.3247C22.9418 13.1663 22.9418 13.0163 22.9334 12.858C23.6334 12.358 24.2334 11.7247 24.7168 10.9997Z" fill="white"/>
<circle cx="16" cy="16" r="15.5" stroke="white"/>
</svg>
