<svg width="32" height="32" viewBox="0 0 32 32" fill="none" xmlns="http://www.w3.org/2000/svg">
<path d="M14.6667 18.5003L18.9917 16.0003L14.6667 13.5003V18.5003ZM24.3 11.9753C24.4083 12.367 24.4833 12.892 24.5333 13.5587C24.5917 14.2253 24.6167 14.8003 24.6167 15.3003L24.6667 16.0003C24.6667 17.8253 24.5333 19.167 24.3 20.0253C24.0917 20.7753 23.6083 21.2587 22.8583 21.467C22.4667 21.5753 21.75 21.6503 20.65 21.7003C19.5667 21.7587 18.575 21.7837 17.6583 21.7837L16.3333 21.8337C12.8417 21.8337 10.6667 21.7003 9.80833 21.467C9.05833 21.2587 8.575 20.7753 8.36667 20.0253C8.25833 19.6337 8.18333 19.1087 8.13333 18.442C8.075 17.7753 8.05 17.2003 8.05 16.7003L8 16.0003C8 14.1753 8.13333 12.8337 8.36667 11.9753C8.575 11.2253 9.05833 10.742 9.80833 10.5337C10.2 10.4253 10.9167 10.3503 12.0167 10.3003C13.1 10.242 14.0917 10.217 15.0083 10.217L16.3333 10.167C19.825 10.167 22 10.3003 22.8583 10.5337C23.6083 10.742 24.0917 11.2253 24.3 11.9753Z" fill="white"/>
<circle cx="16" cy="16" r="15.5" stroke="white"/>
</svg>
